<?xml version="1.0" standalone="no"?>
<!DOCTYPE svg PUBLIC "-//W3C//DTD SVG 20010904//EN"
 "http://www.w3.org/TR/2001/REC-SVG-20010904/DTD/svg10.dtd">
<svg version="1.0" xmlns="http://www.w3.org/2000/svg"
 width="2000.000000pt" height="2000.000000pt" viewBox="0 0 500.000000 500.000000"
 preserveAspectRatio="xMidYMid meet">

<g transform="translate(0.000000,500.000000) scale(0.100000,-0.100000)"
fill="#64ffda" stroke="none">
<path d="M2430 4025 c-30 -19 -54 -40 -52 -46 4 -15 85 -129 91 -129 9 0 81
156 81 174 0 16 -29 36 -52 36 -7 0 -38 -16 -68 -35z"/>
<path d="M2546 3946 c-20 -40 -40 -85 -45 -98 -6 -16 -16 -24 -30 -23 -18 1
-43 32 -114 137 -11 17 -14 16 -102 -39 -11 -7 -33 -19 -50 -28 -16 -9 -127
-73 -245 -143 -273 -162 -267 -144 -120 -323 56 -68 114 -139 128 -158 26 -32
54 -65 106 -126 14 -16 26 -33 26 -37 0 -18 29 -6 35 13 4 12 34 78 67 148 98
206 125 263 156 331 81 175 100 211 106 202 8 -13 4 -23 -71 -181 -34 -73 -63
-135 -63 -136 0 -2 -30 -65 -66 -142 -130 -274 -127 -264 -115 -287 6 -12 54
-73 106 -136 82 -99 108 -140 91 -140 -3 0 -44 48 -93 108 -48 59 -97 117
-109 130 l-21 24 -18 -39 c-10 -21 -42 -90 -72 -153 -30 -63 -64 -137 -77
-165 l-24 -50 111 -65 c62 -36 119 -69 128 -72 12 -5 33 27 90 133 44 83 79
137 86 134 7 -2 15 0 18 6 4 5 22 -10 41 -33 20 -24 45 -55 57 -69 12 -14 36
-42 52 -63 17 -21 38 -48 49 -60 10 -11 39 -47 64 -79 31 -39 50 -56 61 -52
50 19 254 150 262 168 5 12 22 45 38 72 70 127 111 205 111 215 0 6 -20 40
-45 75 -50 70 -156 224 -260 378 -36 54 -70 95 -75 92 -5 -3 -15 -18 -23 -33
-7 -15 -27 -52 -44 -82 -17 -30 -49 -89 -70 -130 -22 -41 -71 -131 -109 -200
-38 -69 -75 -138 -83 -153 -15 -27 -31 -36 -31 -16 0 11 5 20 212 398 70 129
128 240 128 247 0 7 -42 74 -92 149 -119 174 -130 193 -126 206 2 6 31 -29 66
-78 34 -48 65 -92 69 -98 5 -5 28 -40 52 -77 24 -38 46 -68 50 -68 3 0 28 39
54 88 26 48 64 119 85 157 21 39 41 78 44 87 6 13 -19 32 -120 91 -70 41 -144
84 -164 96 l-37 20 -35 -73z"/>
<path d="M2925 3801 c-3 -6 -18 -34 -33 -63 -16 -29 -43 -80 -62 -113 -18 -32
-46 -85 -63 -116 l-30 -57 69 -104 c201 -297 306 -448 314 -448 3 0 20 28 38
63 18 34 48 91 68 127 l34 65 -1 225 c-1 174 -5 230 -15 248 -8 12 -19 22 -24
22 -5 0 -69 36 -144 80 -74 44 -137 80 -140 80 -3 0 -7 -4 -11 -9z"/>
<path d="M1746 3474 c-8 -20 -8 -697 0 -718 6 -15 162 -112 168 -105 3 4 77
163 159 341 20 44 35 64 44 61 8 -3 13 2 13 12 0 10 -5 15 -14 12 -8 -3 -28
11 -47 35 -19 23 -68 82 -109 132 -41 50 -102 124 -134 164 -68 84 -72 87 -80
66z"/>
<path d="M2714 3459 c-3 -6 -1 -16 5 -22 8 -8 11 -5 11 11 0 24 -5 28 -16 11z"/>
<path d="M3228 3043 c-8 -16 -31 -58 -51 -95 -20 -36 -37 -71 -37 -78 0 -21
92 -142 101 -133 5 5 12 79 16 165 6 161 -1 196 -29 141z"/>
<path d="M3112 2865 c4 -17 -15 -60 -62 -147 -38 -68 -67 -124 -65 -126 2 -2
53 26 114 61 l111 64 -40 57 c-25 35 -40 68 -40 86 0 17 -5 30 -11 30 -7 0 -9
-10 -7 -25z"/>
<path d="M2279 2613 l-75 -138 32 -17 c18 -9 82 -46 142 -83 61 -36 116 -65
122 -65 6 0 32 12 58 28 26 15 55 32 66 37 11 6 21 15 23 20 2 6 -45 69 -104
140 -60 72 -124 150 -143 173 -19 23 -37 42 -40 42 -3 0 -40 -62 -81 -137z"/>
<path d="M2310 1924 c0 -9 -9 -31 -20 -49 -44 -72 -110 -249 -110 -297 0 -23
22 -48 43 -48 2 0 7 30 10 68 4 61 42 197 66 240 8 15 10 13 15 -8 2 -14 7
-56 11 -95 8 -100 26 -178 43 -192 9 -7 26 -13 39 -13 19 0 23 5 23 33 1 76
56 244 102 309 21 31 17 48 -13 48 -25 0 -43 -39 -84 -189 -28 -101 -33 -111
-40 -85 -5 16 -11 83 -14 148 l-6 120 -32 13 c-29 12 -33 11 -33 -3z"/>
<path d="M2742 1927 c-115 -42 -194 -196 -162 -316 19 -72 92 -101 157 -61 35
21 93 94 93 117 0 7 5 13 10 13 6 0 10 9 10 20 0 17 -7 20 -45 20 -47 0 -105
-22 -105 -40 0 -6 18 -10 40 -10 33 0 40 -3 40 -20 0 -11 -18 -38 -40 -60 -35
-35 -43 -39 -61 -30 -30 17 -42 58 -36 132 4 47 14 81 32 112 55 94 155 153
155 92 0 -14 -4 -28 -10 -31 -17 -10 -12 -45 6 -45 43 0 59 78 22 104 -26 19
-60 19 -106 3z"/>
</g>
</svg>
